<svg width="508" height="495" viewBox="0 0 508 495" fill="none" xmlns="http://www.w3.org/2000/svg">
<path d="M507.765 220.177C507.765 194.534 496.552 170.805 477.264 154.642C478.394 149.062 478.963 143.373 478.963 137.626C478.963 93.5151 445.445 57.0864 402.537 52.4751C389.298 21.2202 358.397 0.27002 323.677 0.27002C294.998 0.27002 269.585 14.4546 254.033 36.1611C238.482 14.4546 213.069 0.27002 184.39 0.27002C149.67 0.27002 118.769 21.2202 105.529 52.4751C62.6223 57.0864 29.1037 93.5151 29.1037 137.626C29.1037 143.373 29.673 149.062 30.8029 154.642C11.5148 170.805 0.301941 194.534 0.301941 220.177C0.301941 241.066 7.7453 260.753 21.131 276.171C7.60761 294.383 0.301941 316.346 0.301941 339.459C0.301941 398.178 48.0724 445.95 106.791 445.95C106.891 445.95 106.99 445.95 107.09 445.95C113.008 458.295 121.894 469.237 132.871 477.516C147.815 488.789 165.629 494.747 184.39 494.747C213.069 494.747 238.482 480.562 254.033 458.855C269.585 480.562 294.998 494.747 323.677 494.747C342.438 494.747 360.252 488.789 375.195 477.516C386.173 469.237 395.059 458.295 400.977 445.95C459.836 446.081 507.765 398.278 507.765 339.459C507.765 316.346 500.459 294.383 486.936 276.171C500.321 260.753 507.765 241.066 507.765 220.177ZM182.356 462.238C159.478 462.238 138.833 447.328 131.54 425.776L131.552 425.775C129.722 420.377 128.714 414.603 128.714 408.595C128.714 396.148 133.07 384.022 140.98 374.45C146.61 367.639 145.651 357.554 138.84 351.924C132.028 346.296 121.943 347.255 116.314 354.065C103.675 369.359 96.7139 388.726 96.7139 408.595C96.7139 410.078 96.7564 411.551 96.833 413.016C59.4724 409.045 30.2686 377.348 30.2686 338.951C30.2686 320.438 36.9844 302.988 49.249 289.313L49.2642 289.33C61.2529 275.937 78.001 266.893 96.8242 264.888C96.2962 275.252 97.6504 285.73 100.972 295.89C103.178 302.638 109.442 306.922 116.177 306.922C117.824 306.922 119.5 306.666 121.151 306.126C129.551 303.38 134.134 294.346 131.388 285.946C122.197 257.831 137.593 227.48 165.708 218.29C174.107 215.544 178.69 206.51 175.944 198.11C173.198 189.711 164.167 185.124 155.765 187.874C152.103 189.071 148.568 190.515 145.152 192.155C138.777 175.831 143.176 156.548 157.39 144.77C164.193 139.132 165.139 129.046 159.501 122.241C153.863 115.437 143.776 114.493 136.972 120.13C121.8 132.702 112.432 150.431 110.593 170.049C109.222 184.676 112.164 199.046 118.958 211.701C113.885 217.306 109.51 223.608 105.997 230.533C105.671 231.176 105.378 231.83 105.069 232.478C104.964 232.477 104.863 232.463 104.758 232.463C81.2734 232.463 59.5437 240.107 41.918 253.035C34.4199 243.647 30.2686 231.993 30.2686 219.669C30.2686 201.034 39.7334 184.007 55.5869 174.12C61.9707 170.139 64.7188 162.248 62.1875 155.162C60.1191 149.37 59.0703 143.3 59.0703 137.118C59.0703 107.539 83.1348 83.4746 112.714 83.4746C113.158 83.4746 114.867 83.5332 115.043 83.5332C122.276 83.5332 128.642 78.664 130.505 71.6298C136.722 48.1562 158.044 31.7617 182.356 31.7617C211.936 31.7617 236 55.8261 236 85.4052V408.595C236 438.174 211.936 462.238 182.356 462.238ZM462.081 253.036C444.455 240.109 422.726 232.463 399.242 232.463C399.137 232.463 399.036 232.477 398.931 232.478C398.622 231.83 398.329 231.176 398.003 230.533C394.49 223.608 390.115 217.306 385.042 211.701C391.836 199.046 394.778 184.676 393.407 170.049C391.568 150.431 382.2 132.702 367.028 120.13C360.222 114.492 350.137 115.436 344.499 122.241C338.861 129.046 339.807 139.132 346.61 144.77C360.824 156.548 365.223 175.831 358.848 192.155C355.432 190.515 351.897 189.071 348.235 187.874C339.835 185.126 330.802 189.711 328.056 198.11C325.31 206.51 329.893 215.544 338.292 218.29C366.407 227.48 381.803 257.831 372.612 285.946C369.866 294.346 374.449 303.38 382.849 306.126C384.5 306.666 386.176 306.922 387.823 306.922C394.557 306.922 400.822 302.638 403.028 295.89C406.35 285.73 407.704 275.252 407.176 264.888C424.886 266.774 440.757 274.897 452.559 287.007L452.57 286.99C466.216 300.982 473.731 319.371 473.731 338.951C473.731 377.349 444.527 409.046 407.166 413.016C407.242 411.551 407.286 410.078 407.286 408.595C407.286 388.726 400.325 369.359 387.686 354.065C382.058 347.253 371.972 346.296 365.16 351.924C358.349 357.554 357.39 367.639 363.02 374.45C370.93 384.022 375.286 396.148 375.286 408.595C375.286 414.356 374.367 419.906 372.676 425.111C372.667 425.14 372.657 425.169 372.648 425.198C372.409 425.929 372.156 426.653 371.887 427.371C364.134 448.059 343.953 462.238 321.644 462.238C292.064 462.238 268 438.174 268 408.595V85.4052C268 55.8261 292.064 31.7617 321.644 31.7617C345.956 31.7617 367.278 48.1562 373.495 71.6298C375.404 78.8359 382.01 83.7861 389.487 83.5244C389.487 83.5244 390.842 83.4746 391.286 83.4746C420.865 83.4746 444.93 107.539 444.93 137.118C444.93 143.3 443.881 149.37 441.812 155.162C439.281 162.248 442.029 170.139 448.413 174.12C464.267 184.007 473.731 201.034 473.731 219.669C473.731 231.993 469.58 243.647 462.081 253.036Z" fill="white"/>
</svg>
