<svg width="13" height="14" viewBox="0 0 13 14" fill="none" xmlns="http://www.w3.org/2000/svg">
<path d="M12.6579 6.31927C12.6579 5.68058 12.3858 5.08958 11.9177 4.68701C11.9451 4.54803 11.9589 4.40632 11.9589 4.2632C11.9589 3.16454 11.1454 2.25722 10.1041 2.14236C9.78278 1.36391 9.03283 0.842105 8.1902 0.842105C7.49418 0.842105 6.87742 1.1954 6.5 1.73604C6.12257 1.1954 5.50582 0.842105 4.8098 0.842105C3.96717 0.842105 3.21722 1.36391 2.89591 2.14236C1.85458 2.25722 1.0411 3.16454 1.0411 4.2632C1.0411 4.40632 1.05492 4.54803 1.08234 4.68701C0.614235 5.08958 0.342105 5.68058 0.342105 6.31927C0.342105 6.83954 0.522751 7.32989 0.847614 7.7139C0.519409 8.1675 0.342105 8.71453 0.342105 9.2902C0.342105 10.7527 1.50146 11.9425 2.92653 11.9425C2.92895 11.9425 2.93136 11.9425 2.93378 11.9425C3.07741 12.25 3.29306 12.5225 3.55948 12.7287C3.92214 13.0095 4.35449 13.1579 4.8098 13.1579C5.50582 13.1579 6.12257 12.8046 6.5 12.264C6.87742 12.8046 7.49418 13.1579 8.1902 13.1579C8.64551 13.1579 9.07786 13.0095 9.44052 12.7287C9.70694 12.5225 9.92259 12.25 10.0662 11.9425C11.4947 11.9458 12.6579 10.7552 12.6579 9.2902C12.6579 8.71453 12.4806 8.1675 12.1524 7.7139C12.4772 7.32989 12.6579 6.83954 12.6579 6.31927ZM4.76045 12.3482C4.20519 12.3482 3.70415 11.9769 3.52716 11.4401L3.52746 11.44C3.48304 11.3056 3.45858 11.1618 3.45858 11.0121C3.45858 10.7021 3.56431 10.4001 3.75628 10.1617C3.89291 9.99205 3.86964 9.74087 3.70433 9.60065C3.53902 9.46047 3.29426 9.48436 3.15765 9.65399C2.8509 10.0349 2.68196 10.5173 2.68196 11.0121C2.68196 11.0491 2.68299 11.0858 2.68485 11.1222C1.77813 11.0234 1.06938 10.2339 1.06938 9.27754C1.06938 8.81644 1.23236 8.38182 1.53002 8.04122L1.53039 8.04164C1.82135 7.70806 2.22781 7.4828 2.68464 7.43287C2.67182 7.691 2.70469 7.95198 2.78529 8.20502C2.83883 8.37309 2.99087 8.4798 3.15431 8.4798C3.19429 8.4798 3.23496 8.47342 3.27504 8.45997C3.47889 8.39158 3.59012 8.16656 3.52347 7.95736C3.30042 7.2571 3.67406 6.50117 4.3564 6.27227C4.56025 6.20387 4.67148 5.97886 4.60483 5.76966C4.53818 5.56046 4.319 5.44621 4.11508 5.5147C4.02621 5.54452 3.94042 5.58049 3.85753 5.62134C3.7028 5.21477 3.80956 4.73447 4.15452 4.44114C4.31964 4.3007 4.34258 4.04949 4.20576 3.88001C4.06894 3.71055 3.82413 3.68703 3.65899 3.82742C3.29078 4.14055 3.06342 4.58211 3.01879 5.07074C2.98552 5.43505 3.05693 5.79296 3.22182 6.10815C3.09869 6.24776 2.99251 6.40473 2.90726 6.5772C2.89934 6.59322 2.89224 6.60951 2.88473 6.62566C2.88219 6.62561 2.87973 6.62527 2.87718 6.62527C2.30723 6.62527 1.77986 6.81567 1.3521 7.13764C1.17013 6.90383 1.06938 6.61356 1.06938 6.30661C1.06938 5.84248 1.29908 5.41839 1.68384 5.17214C1.83877 5.07298 1.90546 4.87645 1.84403 4.69996C1.79383 4.5557 1.76837 4.40451 1.76837 4.25054C1.76837 3.51382 2.3524 2.91446 3.07027 2.91446C3.08105 2.91446 3.12253 2.91592 3.12679 2.91592C3.30234 2.91592 3.45682 2.79464 3.50204 2.61944C3.65292 2.03479 4.1704 1.62646 4.76045 1.62646C5.47831 1.62646 6.06234 2.22583 6.06234 2.96254V11.0121C6.06234 11.7489 5.47831 12.3482 4.76045 12.3482ZM11.5492 7.13767C11.1214 6.8157 10.5941 6.62527 10.0241 6.62527C10.0216 6.62527 10.0191 6.62561 10.0166 6.62566C10.0091 6.60951 10.002 6.59322 9.99405 6.5772C9.90879 6.40473 9.80262 6.24776 9.67949 6.10815C9.84437 5.79296 9.91579 5.43505 9.88251 5.07074C9.83788 4.58211 9.61052 4.14055 9.24231 3.82742C9.07712 3.687 8.83236 3.71052 8.69554 3.88001C8.55872 4.04949 8.58166 4.3007 8.74678 4.44114C9.09174 4.73447 9.1985 5.21477 9.04377 5.62134C8.96088 5.58049 8.87509 5.54452 8.78622 5.5147C8.58235 5.44626 8.36312 5.56046 8.29647 5.76966C8.22983 5.97886 8.34105 6.20387 8.5449 6.27227C9.22724 6.50117 9.60088 7.2571 9.37783 7.95736C9.31119 8.16656 9.42241 8.39158 9.62626 8.45997C9.66634 8.47342 9.70701 8.4798 9.74699 8.4798C9.91041 8.4798 10.0625 8.37309 10.116 8.20502C10.1966 7.95198 10.2295 7.691 10.2167 7.43286C10.6465 7.47985 11.0317 7.68216 11.3181 7.98379L11.3184 7.98336C11.6495 8.33186 11.8319 8.78985 11.8319 9.27754C11.8319 10.2339 11.1232 11.0234 10.2164 11.1222C10.2183 11.0858 10.2193 11.0491 10.2193 11.0121C10.2193 10.5173 10.0504 10.0349 9.74365 9.65399C9.60706 9.48431 9.36228 9.46047 9.19697 9.60065C9.03166 9.74087 9.00839 9.99205 9.14502 10.1617C9.337 10.4001 9.44272 10.7021 9.44272 11.0121C9.44272 11.1556 9.42041 11.2939 9.37938 11.4235C9.37916 11.4242 9.37893 11.4249 9.3787 11.4257C9.3729 11.4439 9.36676 11.4619 9.36023 11.4798C9.17208 11.995 8.68229 12.3482 8.14085 12.3482C7.42299 12.3482 6.83896 11.7489 6.83896 11.0121V2.96254C6.83896 2.22583 7.42299 1.62646 8.14085 1.62646C8.7309 1.62646 9.24838 2.03479 9.39926 2.61944C9.44559 2.79892 9.6059 2.92222 9.78738 2.9157C9.78738 2.9157 9.82025 2.91446 9.83103 2.91446C10.5489 2.91446 11.1329 3.51382 11.1329 4.25054C11.1329 4.40451 11.1075 4.5557 11.0573 4.69996C10.9958 4.87645 11.0625 5.07298 11.2175 5.17214C11.6022 5.41839 11.8319 5.84248 11.8319 6.30661C11.8319 6.61357 11.7312 6.90384 11.5492 7.13767Z" fill="white"/>
<path fill-rule="evenodd" clip-rule="evenodd" d="M3.6932 11.7755C3.93283 12.1254 4.33038 12.3482 4.76045 12.3482C5.47831 12.3482 6.06234 11.7489 6.06234 11.0121V2.96254C6.06234 2.22583 5.47831 1.62646 4.76045 1.62646C4.1704 1.62646 3.65292 2.03479 3.50204 2.61944C3.45682 2.79464 3.30234 2.91592 3.12679 2.91592C3.12515 2.91592 3.11795 2.9157 3.10912 2.91543C3.09507 2.91501 3.07689 2.91446 3.07027 2.91446C2.3524 2.91446 1.76837 3.51382 1.76837 4.25054C1.76837 4.40451 1.79383 4.5557 1.84403 4.69996C1.90546 4.87645 1.83877 5.07298 1.68384 5.17214C1.29908 5.41839 1.06938 5.84248 1.06938 6.30661C1.06938 6.49402 1.10693 6.6752 1.1776 6.84112C1.21708 6.93381 1.26688 7.02173 1.32625 7.1033C1.33468 7.11488 1.34329 7.12633 1.3521 7.13764C1.77986 6.81567 2.30723 6.62527 2.87718 6.62527C2.87973 6.62527 2.88219 6.62561 2.88473 6.62566C2.88724 6.62027 2.88969 6.61487 2.89215 6.60948C2.89707 6.59868 2.90198 6.58788 2.90726 6.5772C2.99251 6.40473 3.09869 6.24776 3.22182 6.10815C3.05693 5.79296 2.98552 5.43505 3.01879 5.07074C3.06342 4.58211 3.29078 4.14055 3.65899 3.82742C3.82413 3.68703 4.06894 3.71055 4.20576 3.88001C4.34258 4.04949 4.31964 4.3007 4.15452 4.44114C3.90414 4.65404 3.77925 4.96543 3.78875 5.27565C3.79234 5.39284 3.8151 5.50986 3.85753 5.62134C3.94042 5.58049 4.02621 5.54452 4.11508 5.5147C4.13568 5.50778 4.15644 5.50273 4.17718 5.49945C4.36173 5.47027 4.54492 5.58159 4.60483 5.76966C4.67148 5.97886 4.56025 6.20387 4.3564 6.27227C3.67406 6.50117 3.30042 7.2571 3.52347 7.95736C3.59012 8.16656 3.47889 8.39158 3.27504 8.45997C3.23496 8.47342 3.19429 8.4798 3.15431 8.4798C2.99087 8.4798 2.83883 8.37309 2.78529 8.20502C2.74035 8.06392 2.71024 7.92035 2.69463 7.77619C2.68224 7.66182 2.67897 7.54707 2.68464 7.43287C2.56601 7.44584 2.45078 7.47063 2.34009 7.50606C2.13487 7.57176 1.94524 7.67406 1.77847 7.80549C1.68984 7.87535 1.60766 7.95343 1.53303 8.03862C1.53216 8.0396 1.53125 8.04065 1.53039 8.04164C1.53037 8.04166 1.5304 8.04162 1.53039 8.04164L1.53002 8.04122C1.53 8.04124 1.53004 8.0412 1.53002 8.04122C1.52916 8.0422 1.52826 8.04324 1.5274 8.04422C1.45059 8.13249 1.3828 8.22705 1.32452 8.32671C1.15822 8.6111 1.06938 8.9371 1.06938 9.27754C1.06938 10.1087 1.60474 10.8138 2.34014 11.0491C2.45089 11.0845 2.56618 11.1093 2.68485 11.1222C2.68299 11.0858 2.68196 11.0491 2.68196 11.0121C2.68196 10.934 2.68618 10.8561 2.69448 10.7789C2.73877 10.3674 2.89936 9.97473 3.15765 9.65399C3.29426 9.48436 3.53902 9.46047 3.70433 9.60065C3.86964 9.74087 3.89291 9.99205 3.75628 10.1617C3.56431 10.4001 3.45858 10.7021 3.45858 11.0121C3.45858 11.0418 3.45954 11.0712 3.46143 11.1004C3.46903 11.218 3.49169 11.3315 3.52712 11.439C3.52722 11.4393 3.52736 11.4397 3.52746 11.44C3.52747 11.4401 3.52745 11.44 3.52746 11.44L3.52716 11.4401C3.52717 11.4401 3.52715 11.44 3.52716 11.4401C3.52727 11.4404 3.5274 11.4408 3.52751 11.4411C3.56739 11.5617 3.62364 11.674 3.6932 11.7755ZM3.86009 11.3563C3.99909 11.7451 4.366 12.0061 4.76045 12.0061C5.28107 12.0061 5.72024 11.5683 5.72024 11.0121V2.96254C5.72024 2.40635 5.28107 1.96856 4.76045 1.96856C4.33154 1.96856 3.94648 2.26633 3.8333 2.70493C3.75034 3.02632 3.46332 3.25802 3.12679 3.25802C3.12298 3.25802 3.11974 3.25796 3.11886 3.25794L3.11485 3.25785L3.10763 3.25765L3.09079 3.25714C3.08478 3.25696 3.07912 3.2568 3.0745 3.25668C3.07106 3.2566 3.06945 3.25657 3.06913 3.25656C2.54901 3.2572 2.11048 3.69475 2.11048 4.25054C2.11048 4.36653 2.12961 4.4797 2.16713 4.58753C2.27941 4.91016 2.15953 5.27385 1.86826 5.46028C1.58365 5.64243 1.41148 5.95686 1.41148 6.30661C1.41148 6.42722 1.43205 6.54371 1.47085 6.65215C1.83174 6.44902 2.23928 6.3212 2.67264 6.29041C2.71883 6.20979 2.76916 6.13241 2.82326 6.05846C2.69655 5.73871 2.64601 5.39097 2.6781 5.03962C2.73073 4.46338 2.99983 3.9389 3.43736 3.56681C3.75021 3.30085 4.21526 3.34719 4.47193 3.66509C4.72436 3.97777 4.68374 4.44013 4.37616 4.70173C4.23732 4.81979 4.1549 4.98558 4.13498 5.15969C4.48424 5.10946 4.82173 5.32347 4.93079 5.66581C5.05217 6.0468 4.85246 6.46668 4.46522 6.5966C3.96631 6.76397 3.68111 7.32502 3.84943 7.85352C3.9708 8.2345 3.77111 8.65436 3.38389 8.7843M4.00625 5.19037C4.00629 5.19036 4.00622 5.19038 4.00625 5.19037ZM3.86009 11.3563L3.85229 11.3327C3.81898 11.2319 3.80068 11.1243 3.80068 11.0121C3.80068 10.7791 3.88039 10.553 4.02274 10.3763C4.27481 10.0632 4.23355 9.60095 3.92562 9.33976C3.61237 9.07414 3.14742 9.12127 2.89121 9.43941C2.60154 9.79911 2.41848 10.2353 2.36012 10.6932C1.81005 10.4779 1.41148 9.92849 1.41148 9.27754C1.41148 8.91301 1.53489 8.57142 1.7599 8.29896L1.7882 8.26652C1.94442 8.08742 2.14022 7.9478 2.36027 7.86178C2.37952 8.01212 2.41245 8.16169 2.45933 8.30885C2.55794 8.61842 2.8415 8.8219 3.15431 8.8219C3.23083 8.8219 3.3083 8.80966 3.38389 8.7843M9.99405 6.5772C9.99932 6.58788 10.0042 6.59867 10.0091 6.60947C10.0116 6.61487 10.0141 6.62027 10.0166 6.62566C10.0177 6.62563 10.0189 6.62555 10.0201 6.62546C10.0214 6.62537 10.0228 6.62527 10.0241 6.62527C10.5941 6.62527 11.1214 6.8157 11.5492 7.13767C11.558 7.12631 11.5667 7.11481 11.5751 7.10319C11.6345 7.02165 11.6842 6.93378 11.7237 6.84115C11.7944 6.67523 11.8319 6.49403 11.8319 6.30661C11.8319 5.84248 11.6022 5.41839 11.2175 5.17214C11.0625 5.07298 10.9958 4.87645 11.0573 4.69996C11.1075 4.5557 11.1329 4.40451 11.1329 4.25054C11.1329 3.51382 10.5489 2.91446 9.83103 2.91446C9.82025 2.91446 9.78738 2.9157 9.78738 2.9157C9.6059 2.92222 9.44559 2.79892 9.39926 2.61944C9.24838 2.03479 8.7309 1.62646 8.14085 1.62646C7.42299 1.62646 6.83896 2.22583 6.83896 2.96254V11.0121C6.83896 11.7489 7.42299 12.3482 8.14085 12.3482C8.68229 12.3482 9.17208 11.995 9.36023 11.4798C9.36676 11.4619 9.3729 11.4439 9.3787 11.4257L9.37938 11.4235C9.42041 11.2939 9.44272 11.1556 9.44272 11.0121C9.44272 10.7021 9.337 10.4001 9.14502 10.1617C9.00839 9.99205 9.03166 9.74087 9.19697 9.60065C9.36228 9.46047 9.60706 9.48431 9.74365 9.65399C10.0019 9.97473 10.1625 10.3674 10.2068 10.7789C10.2151 10.8561 10.2193 10.934 10.2193 11.0121C10.2193 11.0491 10.2183 11.0858 10.2164 11.1222C10.3351 11.1093 10.4504 11.0845 10.5612 11.0491C11.2966 10.8138 11.8319 10.1087 11.8319 9.27754C11.8319 8.91339 11.7302 8.56581 11.5409 8.26799C11.477 8.16757 11.4032 8.07281 11.3199 7.98497C11.3194 7.98447 11.3189 7.98396 11.3184 7.98345C11.3184 7.98342 11.3184 7.98339 11.3184 7.98336L11.3181 7.98379C11.3181 7.98376 11.318 7.98373 11.318 7.98371C11.3175 7.9832 11.317 7.98269 11.3165 7.98218C11.2374 7.89907 11.1508 7.82353 11.0579 7.75674C10.9074 7.64864 10.7402 7.56343 10.5612 7.50609C10.4505 7.47063 10.3353 7.44583 10.2167 7.43286C10.2223 7.54706 10.2191 7.66181 10.2067 7.77618C10.1911 7.92035 10.161 8.06392 10.116 8.20502C10.0625 8.37309 9.91041 8.4798 9.74699 8.4798C9.70701 8.4798 9.66634 8.47342 9.62626 8.45997C9.42241 8.39158 9.31119 8.16656 9.37783 7.95736C9.60088 7.2571 9.22724 6.50117 8.5449 6.27227C8.34105 6.20387 8.22983 5.97886 8.29647 5.76966C8.35638 5.5816 8.5396 5.47031 8.72411 5.49946C8.74486 5.50274 8.76562 5.50779 8.78622 5.5147C8.87509 5.54452 8.96088 5.58049 9.04377 5.62134C9.0862 5.50986 9.10896 5.39284 9.11255 5.27565C9.12205 4.96543 8.99716 4.65404 8.74678 4.44114C8.58166 4.3007 8.55872 4.04949 8.69554 3.88001C8.83236 3.71052 9.07712 3.687 9.24231 3.82742C9.61052 4.14055 9.83788 4.58211 9.88251 5.07074C9.91579 5.43505 9.84437 5.79296 9.67949 6.10815C9.80262 6.24776 9.90879 6.40473 9.99405 6.5772ZM10.078 6.05846C10.2047 5.73871 10.2553 5.39097 10.2232 5.03962C10.1706 4.46338 9.90147 3.9389 9.46394 3.56681C9.15106 3.30086 8.68604 3.34715 8.42935 3.66511C8.17693 3.97779 8.21756 4.44013 8.52514 4.70173C8.66398 4.8198 8.74641 4.98559 8.76632 5.1597C8.41716 5.10952 8.07959 5.3234 7.97051 5.66581C7.84914 6.0468 8.04884 6.46668 8.43608 6.5966C8.93499 6.76397 9.22019 7.32502 9.05187 7.85352C8.9305 8.2345 9.13019 8.65436 9.51741 8.7843M10.078 6.05846C10.1321 6.13241 10.1825 6.20979 10.2287 6.29041C10.662 6.3212 11.0696 6.44905 11.4304 6.65218C11.4692 6.54373 11.4898 6.42723 11.4898 6.30661C11.4898 5.95686 11.3177 5.64244 11.0331 5.46028C10.7418 5.27385 10.6219 4.91016 10.7342 4.58753C10.7717 4.4797 10.7908 4.36653 10.7908 4.25054C10.7908 3.69435 10.3517 3.25656 9.83103 3.25656C9.83232 3.25656 9.82742 3.25664 9.81625 3.257L9.80492 3.25739L9.80031 3.25756L9.79966 3.25758C9.45078 3.27011 9.15273 3.03313 9.06801 2.70496C8.95482 2.26636 8.56976 1.96856 8.14085 1.96856C7.62023 1.96856 7.18107 2.40635 7.18107 2.96254V11.0121C7.18107 11.5683 7.62023 12.0061 8.14085 12.0061C8.53296 12.0061 8.89805 11.7481 9.03888 11.3624C9.04367 11.3493 9.04827 11.3358 9.0527 11.3219C9.05271 11.3219 9.05273 11.3218 9.05274 11.3218L9.05297 11.3211L9.05301 11.321L9.05307 11.3208L9.05322 11.3203C9.08387 11.2234 9.10062 11.12 9.10062 11.0121C9.10062 10.7791 9.02091 10.553 8.87856 10.3763C8.62649 10.0632 8.66775 9.60095 8.97568 9.33976C9.28885 9.07421 9.75384 9.12113 10.0101 9.43942C10.2998 9.79911 10.4828 10.2353 10.5412 10.6932C11.0913 10.4779 11.4898 9.92848 11.4898 9.27754C11.4898 8.89021 11.3504 8.52858 11.0974 8.24819L11.07 8.21936C10.9214 8.06285 10.7412 7.94013 10.541 7.86181C10.5218 8.01214 10.4889 8.1617 10.442 8.30886C10.3434 8.61844 10.0598 8.8219 9.74699 8.8219C9.67048 8.8219 9.593 8.80966 9.51741 8.7843M12.2836 4.56072C12.7401 5.02139 13 5.64941 13 6.31927C13 6.8301 12.8488 7.31823 12.5709 7.72754C12.851 8.19408 13 8.73119 13 9.2902C13 10.864 11.8035 12.1693 10.2773 12.2774C10.1172 12.5554 9.90395 12.8027 9.64992 12.9993C9.22779 13.3261 8.72191 13.5 8.1902 13.5C7.53086 13.5 6.93497 13.2291 6.5 12.7945C6.06503 13.2291 5.46913 13.5 4.8098 13.5C4.27808 13.5 3.77219 13.3261 3.35005 12.9993C3.09606 12.8027 2.88285 12.5555 2.72277 12.2775C1.19639 12.17 0 10.8638 0 9.2902C0 8.73119 0.149029 8.19408 0.429056 7.72754C0.15117 7.31823 0 6.8301 0 6.31927C0 5.64941 0.259878 5.02139 0.716425 4.56073C0.704819 4.46227 0.699 4.36297 0.699 4.2632C0.699 3.064 1.53945 2.0524 2.66228 1.83229C3.0706 1.03043 3.8901 0.5 4.8098 0.5C5.46913 0.5 6.06503 0.770895 6.5 1.20551C6.93497 0.770895 7.53086 0.5 8.1902 0.5C9.1099 0.5 9.9294 1.03043 10.3377 1.83229C11.4605 2.0524 12.301 3.064 12.301 4.2632C12.301 4.36297 12.2952 4.46227 12.2836 4.56072ZM11.9177 4.68701C12.3858 5.08958 12.6579 5.68058 12.6579 6.31927C12.6579 6.83954 12.4772 7.32989 12.1524 7.7139C12.4806 8.1675 12.6579 8.71453 12.6579 9.2902C12.6579 10.7552 11.4947 11.9458 10.0662 11.9425C9.92259 12.25 9.70694 12.5225 9.44052 12.7287C9.07786 13.0095 8.64551 13.1579 8.1902 13.1579C7.61902 13.1579 7.10122 12.92 6.72526 12.5358C6.64309 12.4519 6.56769 12.3609 6.5 12.264C6.4323 12.3609 6.35691 12.4519 6.27474 12.5358C5.89878 12.92 5.38098 13.1579 4.8098 13.1579C4.35449 13.1579 3.92214 13.0095 3.55948 12.7287C3.29306 12.5225 3.07741 12.25 2.93378 11.9425H2.92653C1.50146 11.9425 0.342105 10.7527 0.342105 9.2902C0.342105 8.71453 0.519409 8.1675 0.847614 7.7139C0.522751 7.32989 0.342105 6.83954 0.342105 6.31927C0.342105 5.68058 0.614235 5.08958 1.08234 4.68701C1.05492 4.54803 1.0411 4.40632 1.0411 4.2632C1.0411 3.16454 1.85458 2.25722 2.89591 2.14236C3.21722 1.36391 3.96717 0.842105 4.8098 0.842105C5.38098 0.842105 5.89878 1.08003 6.27474 1.46417C6.35691 1.54812 6.4323 1.63907 6.5 1.73604C6.56769 1.63907 6.64309 1.54812 6.72526 1.46417C7.10122 1.08003 7.61902 0.842105 8.1902 0.842105C9.03283 0.842105 9.78278 1.36391 10.1041 2.14236C11.1454 2.25722 11.9589 3.16454 11.9589 4.2632C11.9589 4.40632 11.9451 4.54803 11.9177 4.68701Z" fill="white"/>
</svg>
